# xmcd
#
# Track frame offsets: 
#        150
#        15450
#        27342
#        46162
#        64170
#        78767
#        91415
#        107825
#        126412
#        140070
#        150552
#        178452
#
# Disc length: 2817 seconds
#
# Revision: 0
# Processed by: cddbd v1.5.1PL2 Copyright (c) Steve Scherf et al.
# Submitted via: ExactAudioCopy v0.95a5
#
DISCID=9e0aff0c
DTITLE=Lucky Oceans - Lucky Steels the Wheel
DYEAR=2002
DGENRE=Blues
TTITLE0=Deep Water
TTITLE1=Texas Playboy Rag
TTITLE2=Careless Love
TTITLE3=The Same Chain
TTITLE4=Lucky Lopes In
TTITLE5=If You Ain't Lovin
TTITLE6=Relaxin'
TTITLE7=Weary Blues
TTITLE8=Am I Blue
TTITLE9=Precious Child
TTITLE10=Cows Frolic Nightly
TTITLE11=Sleepwalk
EXTD=
EXTT0=
EXTT1=
EXTT2=
EXTT3=
EXTT4=
EXTT5=
EXTT6=
EXTT7=
EXTT8=
EXTT9=
EXTT10=
EXTT11=
PLAYORDER=
